<mxfile host="app.diagrams.net" modified="2023-11-20T03:10:20.582Z" agent="Mozilla/5.0 (Windows NT 10.0; Win64; x64) AppleWebKit/537.36 (KHTML, like Gecko) Chrome/108.0.0.0 Safari/537.36" version="22.1.3" etag="hJi-J_6YaJZzE-7awuMB" type="github">
  <diagram name="第 1 页" id="LZkrt_0O-kyvI0yQVGQr">
    <mxGraphModel>
      <root>
        <mxCell id="0" />
        <mxCell id="1" parent="0" />
      </root>
    </mxGraphModel>
  </diagram>
</mxfile>
